<?xml version="1.0" encoding="utf-8"?>
<!-- Generator: Adobe Illustrator 26.2.1, SVG Export Plug-In . SVG Version: 6.00 Build 0)  -->
<svg version="1.1" id="Layer_1" xmlns="http://www.w3.org/2000/svg" xmlns:xlink="http://www.w3.org/1999/xlink" x="0px" y="0px"
	 viewBox="0 0 400 192" style="enable-background:new 0 0 400 192;" xml:space="preserve">
<style type="text/css">
	.st0{fill:#0C0847;}
</style>
<g>
	<path class="st0" d="M207,34.1c1.1,0.1,2.2,0.2,3.4,0.3c5,0.5,9.8,1.6,14.2,4c5.9,3.1,10,7.9,12.4,14.1c2,5,2.8,10.2,3,15.5
		c0.2,5.8-0.2,11.5-1.8,17c-1.7,6.1-4.8,11.4-9.9,15.3c-3.8,2.9-8.1,4.6-12.7,5.5c-3.6,0.8-7.3,1-11,1c-5.9,0-11.8,0-17.7,0
		c-0.2,0-0.3,0-0.6,0c0-0.8,0-1.5,0-2.3c1.8,0,3.6,0,5.4,0c0-22.8,0-45.4,0-68.2c-1.8,0-3.6,0-5.4,0c0-0.8,0-1.6,0-2.3
		C193.3,34.1,200.2,34.1,207,34.1z M199.5,104.6c1.5,0,2.9,0,4.4,0c3.4,0,6.7-0.2,9.9-1c6-1.5,10.8-4.7,13.9-10.1
		c2.7-4.7,3.8-9.9,4.4-15.2c0.5-4.5,0.5-9.1,0.2-13.7c-0.3-4.6-1.1-9.1-2.8-13.4c-3.1-7.8-8.8-12.4-16.9-14
		c-4.3-0.9-8.6-0.8-12.9-0.7c-0.1,0-0.1,0-0.2,0.1C199.5,59.2,199.5,81.8,199.5,104.6z"/>
	<path class="st0" d="M28.4,34.1c0,0.7,0,1.5,0,2.3c-1.8,0-3.6,0-5.4,0c0,22.8,0,45.4,0,68.2c1.8,0,3.5,0,5.4,0c0,0.8,0,1.5,0,2.3
		c-6.2,0-12.3,0-18.5,0c0-0.8,0-1.5,0-2.3c1.8,0,3.6,0,5.4,0c0-22.8,0-45.5,0-68.3c-1.8,0-3.6,0-5.4,0c0-0.8,0-1.5,0-2.3
		C16.1,34.1,22.3,34.1,28.4,34.1z"/>
	<path class="st0" d="M140.6,34.1c0,0.3,0,0.5,0,0.8c0,22.9,0,45.9,0,68.8c0,0.3,0,0.6,0,0.9c1.7,0,3.3,0,5,0c0,0.8,0,1.5,0,2.3
		c-5.5,0-11,0-16.5,0c0-0.7,0-1.5,0-2.3c1.6,0,3.1,0,4.8,0c0-22.7,0-45.4,0-68.2c-2.1,0-4.1,0-6.2,0c0-0.8-0.1-1.6-0.1-2.3
		C131.8,34.1,136.2,34.1,140.6,34.1z"/>
	<path class="st0" d="M159.9,34.1c0,0.3,0,0.6,0,0.9c0,22.9,0,45.7,0,68.6c0,0.3,0,0.6,0,0.9c1.7,0,3.3,0,5,0c0,0.8,0,1.5,0,2.3
		c-5.5,0-11,0-16.5,0c0-0.7,0-1.4,0-2.2c1.6,0,3.1,0,4.8,0c0-22.7,0-45.4,0-68.2c-2.1,0-4.1,0-6.3,0c0-0.8,0-1.6,0-2.3
		C151.2,34.1,155.5,34.1,159.9,34.1z"/>
	<path class="st0" d="M387.8,86.9c0.8,0,1.5,0,2.2,0c0,0.2,0,0.3,0,0.4c0,3.1,0,6.2,0,9.4c0,2.2-0.3,4.4-1.2,6.5
		c-1.1,2.8-3.2,4.5-6.1,5.1c-2.1,0.4-4.3,0.5-6.4-0.2c-3.2-0.9-5-3.2-5.8-6.3c-0.5-1.8-0.7-3.7-0.7-5.6c0-13.1,0-26.3,0-39.4
		c0-0.3,0-0.6,0-0.9c-0.7,0-1.3,0-2,0c-0.9,5.1-1.8,10.3-2.7,15.5c-0.6,0-1.1,0-1.7,0c-0.2-1.3-0.3-2.7-0.5-4
		c-0.3-2.8-0.6-5.5-1-8.3c-0.1-0.9-0.5-1.8-0.9-2.6c-0.6-1.2-1.8-1.7-3.1-2c-3.2-0.6-6.4-0.5-9.5,0.9c-2.4,1.1-4.3,2.7-5.6,5.1
		c-1.8,3.4-1.4,6.4,1.5,8.9c1.5,1.3,3.2,2.5,4.9,3.6c2.8,1.8,5.6,3.5,8.4,5.3c1.6,1.1,3.1,2.4,4.3,3.9c2.2,2.7,3,5.8,2.5,9.2
		c-0.6,3.8-2,7.2-4.5,10.1c-2.8,3.3-6.4,5.4-10.6,6.5c-4.3,1.1-8.5,1.1-12.6-0.5c-2.1-0.8-4-1.9-5.5-3.6c-0.2-0.2-0.3-0.6-0.3-0.9
		c0.2-1.5,0.5-3,0.8-4.6c-0.6,1-1,1.8-1.5,2.6c-2.4,3.9-5.8,6.4-10.4,7.2c-6.5,1.2-12.4,0.1-17.2-4.9c-2.4-2.5-3.9-5.5-5-8.7
		c-2-6.1-2.5-12.3-1.9-18.7c0.4-4.6,1.6-9.1,3.7-13.2c2.1-4,4.9-7.5,9.2-9.3c6.3-2.7,12.2-2.1,17.7,2.1c2.5,2,4.1,4.7,5.1,7.7
		c1.3,4,1.5,8.1,1.3,12.3c-9.9,0-19.8,0-29.8,0c0,0.3,0,0.6,0,0.8c-0.1,4.2-0.1,8.3,0.4,12.5c0.6,4.3,1.5,8.5,3.9,12.1
		c1.8,2.8,4.2,4.8,7.6,5.2c4,0.5,7.5-0.6,10.5-3.3c3.2-2.9,4.9-6.6,5.6-10.7c0.3-1.8,0.5-3.6,0.8-5.5c0.6,0,1.3,0,2,0
		c0.4-0.9,0.4-0.9,1.9-0.8c0,0.2,0,0.5,0,0.8c0.1,3.3,0.1,6.7,0.3,10c0.1,1.7,0.5,3.5,0.9,5.1c0.7,2.5,2.5,3.9,5,4.3
		c4.7,0.6,9-0.3,12.7-3.5c2.7-2.3,4.3-5.3,4.7-8.9c0.3-3-1-5.4-3.3-7.2c-2-1.6-4.1-3-6.2-4.4c-2.8-1.9-5.6-3.6-8.3-5.5
		c-2.2-1.6-3.8-3.7-4.5-6.3c-0.8-3-0.3-5.8,1-8.6c2.6-5.3,7.1-8.2,12.7-9.4c4.4-0.9,8.7-0.7,13,0.8c0.8,0.3,1.7,0.5,2.6,0.4
		c1.2-0.1,2.4,0,3.7,0c0-3.6,0-7.2,0-10.8c2.2,0,4.5,0,6.7,0c0,3.6,0,7.1,0,10.8c3.4,0,6.7,0,10.1,0c0,0.8,0,1.5,0,2.3
		c-3.3,0-6.6,0-10.1,0c0,0.3,0,0.5,0,0.8c0,13.8,0,27.7,0,41.5c0,1.7,0.1,3.3,0.8,4.9c0.8,1.8,2.2,2.5,4.1,2.5
		c3.5,0,5.5-1.7,5.9-5.2c0.3-2.8,0.3-5.7,0.4-8.5C387.8,90.1,387.8,88.6,387.8,86.9z M325.6,73.2c0-1.4,0.1-2.8,0-4.2
		c-0.1-3-0.5-5.9-1.6-8.8c-2.1-5.4-6.7-7-11.3-5.8c-2.8,0.8-4.7,2.8-6.1,5.3c-1.9,3.4-2.8,7.1-3.2,10.9c-0.1,0.8-0.1,1.7-0.2,2.6
		C310.7,73.2,318.1,73.2,325.6,73.2z"/>
	<path class="st0" d="M129.7,75.5c-10,0-19.9,0-30,0c0,0.9,0,1.8,0,2.7c0,4.4,0.1,8.8,0.9,13.2c0.6,3.3,1.6,6.5,3.4,9.4
		c3.6,5.8,9.7,6.7,15.1,4.1c4.5-2.1,7-5.9,8.2-10.6c0.6-2.2,0.8-4.6,1.1-6.9c0-0.2,0-0.5,0.1-0.8c0.7,0,1.5,0,2.3,0
		c-0.1,1.1-0.1,2.2-0.2,3.3c-0.3,3.4-1.1,6.7-2.8,9.7c-3,5.4-7.5,8.4-13.6,8.8c-3.8,0.3-7.5-0.3-10.9-2.3c-3-1.7-5.2-4.3-6.8-7.3
		c-0.7-1.3-1.2-2.6-1.9-4c-0.1,1.4-0.1,2.7-0.3,4.1c-0.2,1.7-0.5,3.3-1.3,4.8c-1.2,2.5-3.1,3.9-5.8,4.5c-2.1,0.4-4.2,0.5-6.2-0.1
		c-3.4-0.9-5.3-3.3-6-6.6c-0.4-1.8-0.6-3.7-0.6-5.6c0-13.1,0-26.2,0-39.2c0-0.3,0-0.6,0-0.9c-1.5,0-3,0-4.6,0c0-0.8,0-1.5,0-2.3
		c1.5,0,3,0,4.6,0c0-3.6,0-7.2,0-10.8c2.3,0,4.4,0,6.7,0c0,3.6,0,7.1,0,10.8c3.4,0,6.7,0,10.1,0c0,0.8,0,1.5,0,2.3
		c-3.4,0-6.7,0-10.1,0c0,0.3,0,0.5,0,0.8c0,13.8,0,27.7,0,41.5c0,1.7,0.1,3.3,0.8,4.9c0.9,1.9,2.4,2.6,4.3,2.5
		c3.1-0.1,5.2-1.3,5.7-5.5c0.3-3.4,0.2-6.8,0.3-10.3c0-0.9,0-1.7,0-2.6c0.2-0.1,0.4-0.1,0.6-0.1c0-0.1,0-0.1,0-0.1
		c-0.5-3.9-0.6-7.8-0.1-11.7c0.7-6,2.5-11.6,6.3-16.5c2.8-3.6,6.4-6,11-6.6c7.6-1,14.7,2.3,17.8,10c1.4,3.4,1.8,7,1.8,10.7
		C129.7,73.6,129.7,74.5,129.7,75.5z M122.5,73.2c0-1.1,0-2.1,0-3.1c-0.1-3.3-0.4-6.6-1.6-9.8c-2-5.4-6.6-7.1-11.3-5.9
		c-2.9,0.7-4.8,2.8-6.2,5.3c-1.6,2.7-2.4,5.7-2.9,8.8c-0.2,1.5-0.3,3.1-0.5,4.7C107.6,73.2,115,73.2,122.5,73.2z"/>
	<path class="st0" d="M265.2,104.9c-0.8-0.3-1.6-0.5-2.4-0.8c-5.4-2.1-7.5-6.3-7.1-11.7c0.4-5,3.5-8.1,7.9-10
		c0.6-0.3,1.2-0.5,1.9-0.8c-0.4-0.6-0.8-1.1-1.1-1.7c-1.6-2.9-2.4-6.1-2.4-9.5c-0.1-3.7,0.6-7.2,2.5-10.5c2.5-4.4,6.3-7,11.3-7.9
		c3.5-0.6,6.8,0.2,10.1,1.1c0.7,0.2,1.5,0.3,2.2,0.3c2.8,0,5.6,0,8.4,0c0,0.7,0,1.5,0,2.3c-2.3,0-4.6,0-7.1,0
		c0.3,0.3,0.4,0.6,0.6,0.8c2.8,3.4,4.7,7.2,5.1,11.5c0.6,5.4-0.5,10.4-4.2,14.7c-2.7,3.2-6.3,4.8-10.4,5.3
		c-4.9,0.5-9.2-0.8-12.8-4.3c-0.2-0.1-0.4-0.3-0.6-0.2c-2.7,0.7-4.9,2.1-6.3,4.6c-1.2,2.3-0.9,6.6,1.2,8.3c1.3,1.1,2.9,1.8,4.6,2
		c2.9,0.5,5.9,0.8,8.9,1.1c4.1,0.3,8.1,0.5,12.1,1.3c2.4,0.5,4.7,1.2,6.7,2.7c1.9,1.4,2.8,3.3,3.2,5.6c0.8,6-1.9,10.3-6.6,13.5
		c-4.5,3-9.5,4.2-14.9,4.2c-3.5,0-6.9-0.5-10.1-2c-3.2-1.5-5.8-3.8-6.7-7.3c-1-3.8-0.1-7.2,2.8-9.9
		C262.7,106.6,264,105.8,265.2,104.9z M288.4,70c0-0.6,0-1.2,0-1.8c-0.2-3.1-0.5-6.1-1.8-8.9c-2.4-5.4-7.9-6.1-11.9-4.4
		c-2.5,1.1-3.9,3.3-4.8,5.8c-1.3,3.7-1.4,7.5-1.3,11.4c0.1,2.9,0.6,5.8,1.8,8.5c2.4,5.5,7.9,6.2,11.9,4.5c2.5-1.1,3.8-3.2,4.7-5.6
		C288.1,76.4,288.4,73.2,288.4,70z M276.6,124.6c0.6,0,1.5-0.1,2.3-0.2c3.4-0.4,6.7-1.4,9.5-3.4c2.3-1.7,4-3.9,4.1-6.9
		c0.1-1.7-0.1-3.3-1.2-4.6c-0.9-1.1-2.2-1.7-3.6-2c-2.5-0.4-5-0.6-7.4-0.9c-3.7-0.3-7.5-0.6-11.3-0.9c-0.3,0-0.6,0.1-0.8,0.2
		c-0.8,0.8-1.6,1.6-2.4,2.4c-4.3,4.5-2.8,11.2,1.8,14C270.4,124,273.2,124.5,276.6,124.6z"/>
	<path class="st0" d="M47.5,104.6c0,0.8,0,1.5,0,2.3c-5.8,0-11.6,0-17.4,0c0-0.7,0-1.4,0-2.2c1.6,0,3.1,0,4.8,0
		c0-16.3,0-32.5,0-48.8c-1.6,0-3.2,0-4.8,0c0-0.8,0-1.5,0-2.3c3.8,0,7.6,0,11.5,0c0,2,0,4,0,6.1c0.1,0,0.1,0,0.2,0.1
		c0.2-0.2,0.3-0.5,0.5-0.7c1.3-2.3,2.9-4.2,5.2-5.5c2.8-1.7,5.8-1.9,9-1.5c3,0.4,5.7,1.6,7.8,3.9c1.8,2.1,2.8,4.6,3.2,7.3
		c0.2,1.7,0.4,3.3,0.4,5c0,11.8,0,23.6,0,35.4c0,0.3,0,0.6,0,0.9c1.6,0,3.2,0,4.8,0c0,0.8,0,1.5,0,2.3c-5.6,0-11.2,0-16.9,0
		c0-0.7,0-1.4,0-2.2c1.8,0,3.6,0,5.4,0c0-0.3,0-0.6,0-0.8c0-12.6,0-25.3,0-37.9c0-1.7-0.2-3.5-0.6-5.2c-1-3.9-3.8-5.9-7.9-5.8
		c-2.6,0.1-4.7,1.3-6.4,3.1c-3.2,3.5-4.5,7.8-4.5,12.5c0,11.1,0,22.2,0,33.3c0,0.2,0,0.4,0,0.7C43.6,104.6,45.5,104.6,47.5,104.6z"
		/>
	<path class="st0" d="M179.2,104.6c1.7,0,3.4,0,5,0c0,0.8,0,1.5,0,2.3c-5.5,0-11,0-16.5,0c0-0.7,0-1.4,0-2.2c1.6,0,3.1,0,4.7,0
		c0-16.3,0-32.5,0-48.8c-1.6,0-3.1,0-4.7,0c0-0.8,0-1.5,0-2.3c3.8,0,7.6,0,11.5,0C179.2,70.5,179.2,87.5,179.2,104.6z"/>
	<path class="st0" d="M247.1,55.8c-1.6,0-3.2,0-4.8,0c0-0.7,0-1.5,0-2.2c3.8,0,7.6,0,11.5,0c0,0.3,0,0.6,0,0.9c0,16.4,0,32.8,0,49.2
		c0,1.1-0.1,0.9,1,0.9c1.3,0,2.7,0,4,0c0,0.8,0,1.5,0,2.2c-5.5,0-11,0-16.5,0c0-0.7,0-1.5,0-2.2c1.6,0,3.2,0,4.8,0
		C247.1,88.3,247.1,72.1,247.1,55.8z"/>
	<path class="st0" d="M46.8,151.7c-0.3,1.7-0.6,3.3-0.9,4.9c0.9,0.2,1.6,0.3,2.5,0.5c0,0.2,0,0.5,0,0.8c-2.1,0-4.2,0-6.3,0
		c-0.2-0.6,0-0.8,0.6-0.9c1.1-0.2,1.1-0.2,1.4-1.4c0.2-1.3,0.5-2.7,0.8-4.1c-0.6,0.2-1.1,0.4-1.6,0.5c-0.7,0.1-1.3,0.3-2,0.2
		c-1.2,0-1.7-0.7-1.5-1.9c0.2-1.3,0.5-2.6,0.8-3.8c0.2-1,0.4-1.9,0.6-2.9c0.1-0.3,0.1-0.6,0.1-0.9c0-1.5-0.7-2-2.1-1.6
		c-1.1,0.4-2,1-2.6,1.9c-0.3,0.4-0.3,0.9-0.4,1.4c-0.5,2.4-0.9,4.8-1.4,7.2c-0.1,0.4-0.3,0.6-0.7,0.6c-0.5,0-1,0-1.6,0
		c0.2-1.1,0.4-2.1,0.6-3.2c0.4-1.8,0.7-3.6,1.1-5.4c0.1-0.3,0.1-0.6,0.1-0.9c0-1.4-0.9-2.2-2.2-1.5c-1,0.5-1.9,1.2-2.8,1.8
		c-0.2,0.1-0.2,0.5-0.3,0.7c-0.5,2.6-1,5.3-1.5,7.9c-0.1,0.4-0.2,0.6-0.6,0.5c-0.5,0-1.1,0-1.7,0c0.7-3.6,1.5-7.2,2.2-10.8
		c-0.6-0.1-1.1-0.2-1.6-0.3c-0.5-0.1-0.5-0.1-0.5-0.8c1.5-0.3,2.9-0.6,4.5-0.9c-0.2,0.9-0.3,1.7-0.5,2.5c0.8-0.5,1.6-1.1,2.4-1.5
		c0.6-0.3,1.2-0.6,1.8-0.8c1.6-0.4,2.6,0.2,2.9,1.9c0,0.1,0,0.2,0.1,0.4c0.3-0.3,0.7-0.5,1-0.7c1-0.7,2-1.3,3.3-1.6
		c1.7-0.4,3,0.8,2.7,2.5c-0.4,2.2-0.9,4.4-1.3,6.6c0,0,0,0,0,0.1c-0.4,2,0.2,2.6,2.2,2.3c0.2,0,0.4,0,0.7,0c0.6-3.2,1.2-6.4,1.8-9.8
		c-0.7-0.1-1.3-0.2-2.2-0.3c0.2-0.3,0.2-0.6,0.4-0.7c1.2-0.3,2.5-0.5,3.7-0.8c0.1,0,0.3,0,0.4,0c-0.1,0.5-0.2,1-0.3,1.5
		c0.7-0.4,1.2-0.7,1.8-1c2.8-1.3,4.8-0.3,5.4,2.7c0.6,3.3-0.9,6.9-3.7,8.6C50.6,152.2,48.8,152.6,46.8,151.7z M49.2,151
		c1,0,1.9-0.4,2.6-1.2c1.2-1.3,1.7-3,1.9-4.7c0.1-1,0.2-2-0.2-3c-0.5-1.2-1.6-1.8-2.9-1.3c-0.6,0.2-1.2,0.6-1.8,1
		c-0.2,0.1-0.4,0.5-0.5,0.7c-0.4,2.1-0.8,4.3-1.2,6.5c-0.1,0.5-0.6,1,0,1.4c0.4,0.3,1,0.4,1.5,0.5C48.9,151,49.1,151,49.2,151z"/>
	<path class="st0" d="M336.6,139.3c-0.6,3.1-1.3,6.1-1.9,9.1c-0.1,0.3-0.1,0.7-0.1,1.1c-0.1,0.9,0.3,1.3,1.2,1.4c0.2,0,0.4,0,0.7,0
		c0.6,0,0.8-0.3,0.9-0.9c0.9-5.1,1.9-10.2,2.8-15.3c0-0.1,0-0.1,0-0.3c-0.6-0.1-1.1-0.2-1.7-0.3c-0.4-0.1-0.6-0.2-0.5-0.8
		c1.5-0.3,3.1-0.6,4.7-0.9c-0.6,3-1.1,5.8-1.7,8.8c0.4-0.3,0.6-0.5,0.8-0.6c0.9-0.4,1.7-1,2.6-1.3c1.5-0.4,2.9,0.5,3.5,2.1
		c0.9,2.3,0.5,4.6-0.6,6.8c-1.4,2.8-3.7,4.3-6.9,4.1c-0.9-0.1-1.7-0.5-2.6-0.7c-0.3-0.1-0.6-0.1-0.9,0c-0.8,0.2-1.6,0.6-2.4,0.7
		c-1.3,0.2-1.9-0.3-2-1.6c0-0.1,0-0.3-0.1-0.5c-0.6,0.5-1.2,1-1.8,1.4c-1.3,0.9-2.9,0.9-4.1,0.1c-0.9-0.6-1.3-1.5-1.5-2.5
		c-0.8-3.6,1.2-7.9,4.4-9.4c1.6-0.7,3.2-0.9,4.9-0.2c0.2,0.1,0.5,0.1,0.5,0C335.4,139,336.1,139.4,336.6,139.3z M346.3,143.8
		c-0.1-0.4-0.1-0.9-0.3-1.4c-0.4-1.4-1.5-1.9-2.9-1.4c-0.6,0.2-1.2,0.6-1.8,0.9c-0.3,0.2-0.5,0.5-0.6,0.9c-0.5,2.3-0.9,4.6-1.3,7
		c0,0.2,0.1,0.6,0.3,0.7c1.2,1,2.7,1,3.9,0C345.6,148.8,346.1,146.5,346.3,143.8z M327.2,147.3c0,0.4,0,0.7,0,1.1
		c0.1,0.9,0.4,1.8,1.3,2.2c1.4,0.7,3.9-0.6,4.2-2.2c0.3-1.7,0.6-3.4,1-5.1c0.3-1.1,0-1.9-0.6-2.7c-0.1-0.2-0.4-0.3-0.6-0.3
		c-1.3,0-2.4,0.5-3.3,1.4C327.7,143.2,327.3,145.2,327.2,147.3z"/>
	<path class="st0" d="M121.1,151.5c-0.7,0.2-1.4,0.5-2.1,0.6c-0.5,0.1-1.1,0.1-1.6,0.1c-1.1-0.1-1.7-0.7-1.5-1.8
		c0.3-1.8,0.8-3.6,1.1-5.4c0.2-0.9,0.3-1.8,0.3-2.7c0-1-0.6-1.4-1.5-1.3c-1.5,0.2-2.6,1.1-3.7,2.1c-0.2,0.1-0.2,0.5-0.2,0.7
		c-0.5,2.7-1,5.4-1.5,8.2c-0.7,0-1.4,0-2.2,0c0-0.2,0-0.3,0-0.5c-0.1,0-0.3,0.1-0.4,0.1c-1.2,0.4-2.3,0.8-3.6,0.6
		c-0.8-0.1-1.2-0.5-1.2-1.3c0.1-1.2,0.2-2.3,0.4-3.5c0.3-1.9,0.7-3.7,1.1-5.6c0-0.2,0-0.3,0.1-0.6c-0.3-0.1-0.6-0.1-0.9-0.2
		c-0.3,0.7-0.7,1.2-1.4,1.3c-1,0.1-0.7-1-1.4-1.3c-1.6,0.6-3,1.6-3.4,3.5c-0.4,1.6-0.7,3.3-1,5c-0.2,0.8-0.3,1.6-0.4,2.5
		c-0.7,0-1.5,0-2.2,0c0.7-3.6,1.5-7.2,2.2-10.8c-0.7-0.1-1.4-0.3-2.1-0.4c0-0.2,0-0.4,0-0.7c1.5-0.3,2.9-0.6,4.5-1
		c-0.3,1.3-0.5,2.3-0.8,3.5c0.8-0.8,1.4-1.6,2.2-2.2c0.6-0.5,1.3-0.9,2-1c0.5-0.1,1,0.2,1.6,0.3c0.2,0,0.4,0.2,0.6,0.1
		c0.8-0.1,1.5-0.3,2.3-0.5c0.3-0.1,0.6-0.1,1-0.1c-0.3,1.4-0.5,2.7-0.8,4c-0.4,2.1-0.8,4.2-1.2,6.3c-0.2,1,0.3,1.5,1.3,1.4
		c0.6,0,1.1-0.2,1.7-0.3c0.1,0,0.3-0.2,0.3-0.4c0.6-2.9,1.2-5.8,1.8-8.8c0,0,0-0.1,0-0.2c-0.6-0.1-1.3-0.3-2-0.4
		c-0.1-0.4-0.2-0.7,0.4-0.8c1.1-0.2,2.2-0.5,3.2-0.7c0.3-0.1,0.5,0,0.9,0c-0.1,0.8-0.3,1.6-0.4,2.5c0.8-0.5,1.5-1.1,2.2-1.5
		c0.7-0.4,1.5-0.7,2.3-0.9c1.8-0.4,3,0.6,2.8,2.4c-0.3,1.9-0.7,3.8-1.1,5.7c-0.1,0.6-0.3,1.3-0.3,2c-0.1,1.1,0.5,1.6,1.6,1.5
		c0.4,0,0.7-0.1,1.2-0.2C121,151,121.1,151.2,121.1,151.5L121.1,151.5z"/>
	<path class="st0" d="M192.9,150.6c1.1-5.5,2.1-10.9,3.1-16.3c-0.8-0.1-1.5-0.2-2.3-0.3c0-0.2,0-0.4,0-0.7c1.6-0.3,3.1-0.6,4.8-0.9
		c-0.3,1.4-0.5,2.5-0.7,3.7c-0.8,4.2-1.7,8.5-2.5,12.7c-0.1,0.3-0.1,0.5-0.1,0.8c0,0.8,0.4,1.3,1.2,1.3c0.3,0,0.7,0,1.1-0.1
		c0.3-0.1,0.6-0.2,1-0.2c0.2,0.6,0,0.9-0.5,1c-0.9,0.2-1.9,0.5-2.8,0.6c-0.8,0.1-1.4-0.2-1.9-0.9c-0.7,0.2-1.3,0.5-1.9,0.7
		c-2,0.6-2.7,0.2-3.1-1.8c-0.6,0.5-1.2,1-1.8,1.4c-1.3,0.9-3,0.9-4.2,0.1c-0.9-0.6-1.3-1.5-1.5-2.6c-0.7-3.5,1.1-7.8,4.4-9.2
		c1.6-0.7,3.2-0.9,4.9-0.2c0.2,0.1,0.4,0.1,0.5,0c0.8-0.5,0.7-0.5,1.7-0.4c-0.3,1.5-0.7,3-1,4.5c-0.3,1.6-0.7,3.2-1,4.8
		c-0.4,1.9,0.3,2.5,2.2,2.1C192.7,150.7,192.9,150.7,192.9,150.6z M182.9,147.4c0,0.3,0,0.5,0,0.8c0.1,0.9,0.3,1.8,1.2,2.2
		c1.4,0.8,4-0.5,4.3-2c0.3-1.7,0.6-3.4,1-5.1c0.3-1.1,0.1-1.9-0.6-2.7c-0.2-0.2-0.4-0.3-0.6-0.3c-1.3,0-2.4,0.5-3.3,1.4
		C183.4,143.3,182.9,145.3,182.9,147.4z"/>
	<path class="st0" d="M279.2,150.9c-0.3-0.8-0.4-1.5,0.4-2.1c0.5-0.4,1.2-0.3,1.9,0.3c-0.1,0.2-0.1,0.4-0.2,0.6
		c-0.3,0.7-0.2,1,0.5,1.3c0.9,0.4,1.8,0.4,2.6-0.1c0.7-0.4,1.1-1.2,0.9-2c-0.1-0.5-0.4-1.1-0.7-1.4c-0.6-0.6-1.4-1.2-2.1-1.7
		c-2.1-1.8-2-4.3,0.4-5.8c1.1-0.7,2.4-1,3.7-0.6c0.4,0.1,0.9,0.4,1.2,0.8c0.2,0.3,0.2,0.9,0.1,1.3c-0.2,0.3-0.7,0.5-1.1,0.7
		c-0.1,0-0.3-0.1-0.4-0.2c-0.2-0.2-0.4-0.5-0.6-0.8c-0.6-0.8-1.4-0.9-2.3-0.4c-0.8,0.5-1,1.5-0.5,2.3c0.3,0.4,0.7,0.8,1.1,1.1
		c0.7,0.6,1.4,1.1,2.1,1.7c2,1.5,1.3,4.1-0.1,5.3c-1.7,1.3-3.7,1.5-5.7,0.7c-0.3-0.1-0.7-0.1-1-0.1c-0.7,0.1-1.3,0.4-1.9,0.4
		c-1.4,0.2-1.9-0.3-2-1.7c0-0.1,0-0.2,0-0.4c-0.7,0.4-1.3,0.9-1.9,1.2c-0.8,0.4-1.7,0.7-2.6,0.8c-1.8,0.3-3.1-1-2.8-2.8
		c0.4-2.2,0.9-4.3,1.3-6.5c0.1-0.6,0.2-1.1,0.4-1.7c-0.7-0.1-1.4-0.3-2.1-0.4c0-0.2,0-0.4,0-0.7c1.3-0.3,2.5-0.6,3.8-0.8
		c0.5-0.1,0.8,0.2,0.6,0.8c-0.5,2.3-1,4.6-1.5,6.9c-0.2,0.7-0.3,1.4-0.3,2.2c-0.1,1.1,0.6,1.7,1.6,1.6c1.4-0.1,2.5-0.8,3.5-1.6
		c0.2-0.2,0.2-0.5,0.3-0.8c0.6-2.7,1.2-5.5,1.7-8.2c0.1-0.4,0.3-0.6,0.7-0.6c0.5,0,1,0,1.6,0c-0.5,2.2-0.9,4.3-1.4,6.3
		c-0.3,1.2-0.5,2.4-0.7,3.6C277.3,150.6,277.9,151.1,279.2,150.9z"/>
	<path class="st0" d="M369.4,140.9c-0.2,1-0.4,1.9-0.6,2.9c-0.3,1.7-0.6,3.3-0.9,5c-0.2,1.4,0.5,2.1,1.9,2c0.4,0,0.7-0.1,1-0.2
		c0.3-0.1,0.7-0.2,1.1-0.3c0.2,0.5,0.2,0.9-0.4,1c-1.1,0.3-2.1,0.7-3.2,0.9c-1.6,0.3-2.6-0.6-2.5-2.2c0.1-1.8,0.5-3.6,0.8-5.4
		c0.2-1.2,0.5-2.5,0.7-3.8c-0.5,0-1,0.1-1.6,0.1c-0.1-0.4-0.2-0.8,0.3-0.9c1.4-0.3,2-1.3,2.5-2.5c0.4-0.9,0.5-0.9,1.6-0.7
		c-0.2,0.9-0.3,1.9-0.5,2.9c1.2,0,2.3,0.1,3.4-0.3c1.3-0.5,2.2-0.1,2.6,1.3c0.5,1.6,0.8,3.3,1.1,5c0.2,1.2,0.5,2.3,0.7,3.7
		c0.3-0.8,0.6-1.4,0.8-2.1c1-2.5,2.1-5,3.1-7.5c0.2-0.5,0.5-0.6,1-0.5c0.5,0.2,1,0.3,1.5,0.5c0.5,0.2,0.5,0.6,0.1,0.7
		c-2.2,1.1-2.9,3.4-3.8,5.4c-1.3,2.7-2.5,5.4-4.2,7.8c-1,1.4-2,2.7-3.6,3.5c-1.1,0.6-2.2,0.8-3.3,0.1c-0.5-0.3-0.8-0.8-0.7-1.4
		c0.1-0.6,0.4-1.1,1-1.2c0.2-0.1,0.5,0,0.7,0.1c0.3,0.2,0.5,0.5,0.8,0.7c0.4,0.6,1,0.6,1.5,0.2c0.7-0.5,1.4-1,1.9-1.6
		c0.6-0.7,1.1-1.6,1.6-2.4c0.1-0.1,0.1-0.4,0.1-0.6c-0.6-2.7-1.1-5.4-1.7-8.1c-0.5-2.3-0.6-2.3-2.9-2.3
		C370.7,140.9,370.1,140.9,369.4,140.9z"/>
	<path class="st0" d="M317.2,139.4c-0.1,0.7-0.3,1.5-0.4,2.4c0.4-0.3,0.8-0.6,1.1-0.8c1-0.7,2.1-1.4,3.4-1.7
		c1.9-0.4,3.1,0.7,2.8,2.6c-0.3,2.1-0.8,4.2-1.3,6.4c-0.1,0.3-0.1,0.7-0.2,1c-0.1,1.1,0.5,1.7,1.6,1.6c0.4,0,0.7-0.1,1.1-0.2
		c0.2,0.5,0,0.7-0.5,0.9c-1,0.3-2,0.7-3.2,0.5c-0.9-0.1-1.5-0.6-1.3-1.6c0.2-1.5,0.6-2.9,0.9-4.4c0.2-1.1,0.5-2.1,0.6-3.2
		c0.3-1.9-0.8-2.7-2.5-1.9c-0.9,0.4-1.7,1.1-2.6,1.7c-0.2,0.1-0.3,0.4-0.3,0.6c-0.5,2.6-1,5.2-1.4,7.8c0,0.2-0.1,0.5-0.2,0.7
		c-0.7,0-1.4,0-2.2,0c0-0.2,0-0.4,0-0.5c-1,0.2-1.9,0.5-2.9,0.7c-1.8,0.3-2.6-0.5-2.3-2.3c0.5-2.8,1-5.5,1.6-8.3
		c0-0.1,0-0.3,0.1-0.4c-0.7-0.1-1.4-0.3-2.1-0.4c0-0.2,0-0.4,0-0.7c1.5-0.3,3-0.6,4.6-0.9c-0.3,1.5-0.6,2.9-0.8,4.3
		c-0.4,1.9-0.7,3.8-1.1,5.7c-0.3,1.4,0.2,1.9,1.6,1.8c1.5-0.2,1.5-0.2,1.9-1.6c0.5-2.5,1-4.9,1.5-7.4c0-0.2,0-0.3,0.1-0.6
		c-0.6-0.1-1.2-0.2-1.8-0.4c-0.1,0-0.3-0.2-0.3-0.3c0-0.1,0.1-0.4,0.2-0.4c1.4-0.3,2.8-0.6,4.2-0.8
		C317,139.3,317.1,139.3,317.2,139.4z"/>
	<path class="st0" d="M153.4,134.7c-0.2,1.3-0.4,2.6-0.7,3.8c0,0.2-0.3,0.4-0.5,0.4c-0.3,0.1-0.6,0-1,0c0-0.7,0-1.4,0-2
		c0.1-0.7-0.2-1.1-0.9-1.3c-2.6-0.8-4.9-0.2-6.9,1.5c-3,2.7-4,6.2-3.2,10.1c0.5,2.5,2.7,4,5.2,3.9c0.7,0,1.5-0.1,2.2-0.3
		c0.2,0,0.4-0.3,0.5-0.5c0.3-1.6,0.6-3.3,0.9-4.9c0.1-0.4-0.1-0.7-0.5-0.7c-0.4,0-0.9-0.1-1.4-0.1c0-0.3,0-0.6,0-1
		c2.1,0,4.3,0,6.5,0c0,0.3,0,0.6,0,1c-0.5,0-0.9,0.1-1.3,0.1c-0.5,0-0.7,0.3-0.8,0.8c-0.3,1.7-0.7,3.4-1,5.1c-0.1,0.7-0.4,1-1.1,1.1
		c-2,0.4-3.9,0.8-5.9,0.6c-3.1-0.4-5.5-2.7-5.9-5.8c-0.9-6.8,4.5-12.8,11.4-12.6C150.5,134,151.9,134.2,153.4,134.7z"/>
	<path class="st0" d="M26.3,134.3c-0.2,1.3-0.5,2.5-0.7,3.8c-0.4,0-0.8,0-1.3,0c0-0.7,0-1.3,0-1.9c0-0.4-0.1-0.7-0.6-0.7
		c-1.8,0-3.6,0-5.4,0c-0.4,2.3-0.9,4.5-1.3,6.7c1.3,0,2.6,0,3.8,0c0.3,0,0.6-0.4,0.8-0.6c0.2-0.2,0.2-0.5,0.3-0.8
		c0.3-0.9,0.3-0.9,1.4-0.8c-0.4,1.9-0.7,3.8-1.1,5.7c-0.3,0-0.7,0-1,0c0-0.5,0-1,0-1.4c0-0.6-0.2-0.8-0.7-0.8c-1,0-2.1,0-3.1,0
		c-0.2,0-0.5,0.2-0.5,0.3c-0.5,2.3-0.9,4.7-1.4,7.1c1.1,0,2.2,0,3.2,0c1,0,2,0,3.1,0c0.6,0,0.9-0.2,1.1-0.8c0.2-0.5,0.3-1,0.5-1.4
		c0.3-1,0.3-1,1.5-0.8c-0.3,1.4-0.5,2.8-0.8,4.2c-4.3,0-8.5,0-12.8,0c0-0.3,0-0.6,0-0.9c0.4,0,0.8-0.1,1.2-0.1c0.6,0,0.9-0.3,1-0.9
		c0.7-3.8,1.4-7.5,2.2-11.3c0.2-0.8,0.3-1.6,0.5-2.5c0.1-0.7,0-0.9-0.7-1c-0.4,0-0.7-0.1-1.1-0.1c0-0.3,0-0.6,0-1
		C18.2,134.3,22.2,134.3,26.3,134.3z"/>
	<path class="st0" d="M250.3,150.8c0.2,0.5,0,0.8-0.5,0.9c-1,0.2-1.9,0.5-2.9,0.5c-1.1,0-1.4-0.5-1.5-1.6c0-0.2,0-0.4-0.1-0.6
		c-0.5,0.5-1,0.9-1.5,1.3c-2.7,2-5.4,1-6-2.3c-0.5-3.2,0.6-6.7,3.6-8.7c1.7-1.1,3.6-1.5,5.7-0.7c0.3-1.8,0.6-3.5,0.9-5.3
		c-0.8-0.1-1.5-0.2-2.2-0.3c-0.2-0.5-0.1-0.8,0.5-0.9c1.1-0.2,2.2-0.4,3.3-0.6c0.3,0,0.6,0,0.9-0.1c-0.2,1.3-0.4,2.5-0.6,3.7
		c-0.8,4.3-1.5,8.6-2.3,12.9c0,0.3-0.1,0.5-0.1,0.8c0,0.7,0.4,1.1,1.1,1.1C249.1,151,249.6,150.8,250.3,150.8z M239.7,147.3
		c0.1,0.7,0.2,1.4,0.4,2.1c0.4,1.1,1.3,1.5,2.4,1.3c1-0.2,1.7-0.8,2.3-1.5c0.3-0.3,0.6-0.6,0.7-1c0.4-2,0.7-4,1.1-5.9
		c0-0.2,0.1-0.4,0-0.6c-0.6-1.4-1.7-1.8-3.1-1.2c-0.6,0.3-1.1,0.7-1.5,1.1C240.4,143.2,239.9,145.2,239.7,147.3z"/>
	<path class="st0" d="M121.1,151.5c0.1-0.1,0.2-0.1,0.4-0.2c0.9-0.4,1.7-0.7,1.5-1.9c0-0.3,0.2-0.6,0.4-0.9c0.1-0.3,0.3-0.6,0.5-0.8
		c0-0.1-0.1-0.1-0.1-0.1c-3.4-1.4-2.4-5.3-0.6-6.9c1.6-1.4,3.4-1.7,5.4-1c0.4,0.2,0.9,0.2,1.3,0.2c1,0,2,0,3,0c0,0.4,0,0.7,0,1.1
		c-0.9,0-1.7,0-2.6,0c0.1,0.7,0.2,1.3,0.2,1.9c-0.1,2.8-2.2,4.8-5,4.8c-0.7,0-0.8,0.3-0.9,0.8c-0.1,0.5,0,0.8,0.6,1.1
		c1.4,0.6,2.8,1.2,4.1,1.9c1.9,1,2.1,2.9,0.6,4.4c-1.9,1.8-6.1,2.5-8.5,1.2c-2.3-1.2-2.6-3.9-0.5-5.5
		C120.9,151.7,121,151.6,121.1,151.5C121.1,151.5,121.1,151.5,121.1,151.5z M125.6,156.8c0.4-0.1,1.3-0.3,2.1-0.7
		c1.5-0.8,1.4-2.3-0.1-3.1c-1.1-0.6-2.3-1.1-3.5-1.6c-0.1-0.1-0.4-0.1-0.5-0.1c-0.9,0.3-1.8,0.7-2.1,1.8c-0.3,1-0.1,2,0.7,2.7
		C123.1,156.6,124.1,156.7,125.6,156.8z M128.5,142.6c-0.1-0.8-0.1-1.7-1.1-2.1c-0.9-0.4-1.7-0.1-2.3,0.5c-1.3,1.3-1.8,2.9-1.4,4.7
		c0.2,0.9,1,1.4,1.9,1.2c0.5-0.1,1.1-0.4,1.5-0.8C128.1,145.2,128.4,143.9,128.5,142.6z"/>
	<path class="st0" d="M78,139.7c0.2,3.4,0.5,6.8,0.7,10.2c0,0,0.1,0,0.1,0.1c0.2-0.3,0.5-0.6,0.7-0.9c1.1-1.8,2.2-3.6,3.2-5.4
		c0.2-0.4,0.2-0.9,0.2-1.4c0-0.6-0.2-1.3-0.3-1.9c-0.1-0.5,0.1-0.7,0.4-0.9c1.1-0.6,2.3,0.1,2.2,1.3c-0.1,0.7-0.2,1.5-0.6,2.1
		c-1.1,1.9-2.3,3.8-3.5,5.6c-0.6,0.9-1.4,1.8-2,2.7c-0.5,0.9-1.3,1-2.2,0.8c-0.2-3-0.4-5.9-0.6-9c-0.2,0.2-0.3,0.3-0.3,0.5
		c-1.4,2.5-2.8,5.1-4.2,7.6c-0.6,1.2-0.8,1.2-2.1,1c-0.1-1.7-0.2-3.3-0.3-5c-0.1-1.8-0.3-3.7-0.4-5.5c0-0.4-0.2-0.6-0.6-0.7
		c-0.4,0-0.9-0.1-1.3-0.2c-0.2-0.4-0.1-0.7,0.4-0.8c0.7-0.2,1.5-0.5,2.2-0.6c0.4-0.1,0.8-0.1,1.3-0.1c0.2,3.5,0.4,6.9,0.6,10.4
		c0.1-0.2,0.2-0.2,0.2-0.3c1.4-2.8,2.9-5.5,4.1-8.4C76.3,139.9,77,139.7,78,139.7z"/>
	<path class="st0" d="M172.5,134.4c-0.7-0.1-1.3-0.2-1.9-0.4c-0.1,0-0.3-0.2-0.4-0.4c0-0.1,0.1-0.4,0.2-0.4c1.5-0.3,3-0.6,4.6-0.9
		c-0.6,3-1.1,5.8-1.7,8.8c0.7-0.5,1.2-0.9,1.8-1.2c0.5-0.3,1-0.5,1.6-0.6c1.6-0.3,2.9,0.5,3.5,2.1c1.3,3-0.1,9-4.6,10.6
		c-2,0.7-4,0.5-5.8-0.5c-0.4-0.2-0.4-0.4-0.4-0.8c0.6-2.9,1.1-5.8,1.6-8.7C171.5,139.4,172,137,172.5,134.4z M178.6,143.7
		c-0.1-0.4-0.2-1-0.4-1.5c-0.4-1-1.2-1.5-2.2-1.2c-1,0.3-1.8,0.8-2.7,1.3c-0.1,0.1-0.2,0.3-0.2,0.5c-0.5,2.4-0.9,4.7-1.3,7.1
		c0,0.2,0.1,0.6,0.3,0.7c1.2,1,2.7,1,3.9,0C177.9,148.7,178.4,146.4,178.6,143.7z"/>
	<path class="st0" d="M357.5,134.3c-0.6-0.1-1.2-0.2-1.7-0.2c-0.5,0-0.7-0.2-0.5-0.8c1.5-0.3,3-0.6,4.7-0.9
		c-0.3,1.5-0.5,2.8-0.8,4.1c-0.8,4-1.6,8-2.4,12c0,0.2-0.1,0.3-0.1,0.5c-0.3,2,0.8,2.1,2.1,1.9c0.4-0.1,0.7-0.2,1.1-0.3
		c0.2,0.5,0.1,0.9-0.5,1c-0.9,0.2-1.9,0.5-2.8,0.7c-0.8,0.1-1.5-0.1-1.9-0.8c-1.1,0.3-2.2,0.5-3.2,0.8c-0.1,0-0.1,0-0.2,0
		c-1.5,0.1-2.3-0.6-2-2.1c0.3-1.7,0.6-3.5,0.9-5.2c0.2-1.2,0.5-2.4,0.7-3.7c-0.7-0.1-1.4-0.3-2.1-0.4c0-0.2,0-0.4,0-0.7
		c1.5-0.3,3-0.6,4.6-0.9c-0.3,1.5-0.5,2.9-0.8,4.2c-0.4,1.9-0.7,3.8-1.1,5.7c-0.3,1.5,0.2,1.9,1.6,1.8c1.2-0.1,1.2-0.1,1.4-1.4
		c0.6-3,1.1-6.1,1.7-9.1c0.4-1.9,0.7-3.7,1.1-5.6C357.5,134.6,357.5,134.5,357.5,134.3z"/>
	<path class="st0" d="M268,134.6c-0.3,1.5-0.6,2.8-0.9,4.1c-0.4,0-0.8,0-1.1,0c0-0.7,0-1.4,0-2.1c0-0.7-0.2-1-0.9-1.2
		c-1.6-0.5-3.2-0.4-4.6,0.6c-1.5,1.1-2.2,4,0.3,5.2c1.1,0.5,2.1,1.1,3.2,1.6c3.9,1.9,3,6.2,0.4,8c-2.7,1.9-7,2-9.9,0.2
		c0.3-1.4,0.6-2.7,0.9-4.1c0.5,0,0.9,0,1.4,0c-0.1,0.9-0.2,1.7-0.2,2.6c0,0.3,0.1,0.7,0.3,0.8c1.6,1,4.3,0.9,5.9-0.2
		c1.1-0.8,1.5-1.9,1.5-3.2c0-0.8-0.4-1.4-1.1-1.8c-1-0.6-2.1-1.1-3.1-1.7c-0.3-0.2-0.7-0.4-1-0.6c-2.8-1.8-2.9-5.5-0.2-7.5
		c1.7-1.3,3.7-1.6,5.8-1.4C265.8,134.1,266.9,134.4,268,134.6z"/>
	<path class="st0" d="M217.2,134.3c-0.3,1.3-0.5,2.6-0.8,3.8c0,0.1-0.3,0.3-0.5,0.3c-0.2,0.1-0.5,0-0.8,0c0-0.7,0-1.4,0-2.1
		c0-0.8-0.1-0.9-0.9-0.9c-1.4,0-2.8,0-4.3,0c-0.2,0-0.5,0.2-0.5,0.3c-0.4,2.2-0.9,4.4-1.3,6.7c1.2,0,2.4,0,3.6,0
		c0.3,0,0.5-0.3,0.7-0.6c0.2-0.2,0.2-0.5,0.3-0.8c0.3-0.9,0.3-0.9,1.4-0.8c-0.4,1.9-0.7,3.8-1.1,5.7c-0.4,0-0.7,0-1.1,0
		c0-0.5,0-1,0-1.5c0-0.5-0.2-0.8-0.7-0.8c-0.9,0-1.9,0-2.8,0c-0.4,0-0.5,0.1-0.6,0.5c-0.4,2-0.8,4-1.1,5.9c-0.1,0.5,0.1,0.7,0.6,0.8
		c0.3,0,0.5,0,0.8,0.1c0.9,0,0.9,0.1,0.7,1.1c-2.2,0-4.3,0-6.6,0c0-0.3,0-0.6,0-0.9c0.4,0,0.8-0.1,1.3-0.1c0.5,0,0.8-0.3,0.9-0.8
		c0.7-3.7,1.4-7.5,2.1-11.2c0.2-0.9,0.4-1.8,0.5-2.7c0.1-0.7,0-0.8-0.7-0.9c-0.3,0-0.7-0.1-1.1-0.1c0-0.3,0-0.6,0-1
		C209.2,134.3,213.1,134.3,217.2,134.3z"/>
	<path class="st0" d="M307,150.6c0.2,0.5,0.1,0.8-0.4,0.9c-0.8,0.2-1.5,0.6-2.3,0.7c-1.3,0.2-1.9-0.3-2-1.6c0-0.1,0-0.3-0.1-0.5
		c-0.5,0.4-1,0.8-1.5,1.2c-2.7,1.9-5.6,0.8-6-2.5c-0.4-3.2,0.5-6,3-8.1c1.9-1.5,4-1.9,6.4-1.1c0.2,0.1,0.5,0.1,0.5,0
		c0.5-0.6,1.1-0.4,1.7-0.4c-0.3,1.4-0.7,2.7-1,4.1c-0.4,1.8-0.7,3.6-1.1,5.4c0,0.1,0,0.2,0,0.3c-0.1,1.4,0.4,2,1.9,1.7
		C306.4,150.8,306.7,150.7,307,150.6z M296.8,147.7c0,0.2,0.1,0.6,0.1,1c0.3,1.6,1.4,2.3,3,1.8c1.3-0.5,2.4-1.2,2.6-2.8
		c0.2-1.5,0.5-3,0.9-4.4c0.3-1,0.2-1.9-0.5-2.6c-0.2-0.2-0.5-0.4-0.7-0.4c-1.3,0-2.3,0.5-3.2,1.4
		C297.3,143.3,296.9,145.3,296.8,147.7z"/>
	<path class="st0" d="M250.1,44.6c-2.5,0-4.5-2-4.5-4.5c0-2.5,2-4.5,4.5-4.5c2.5,0,4.5,2,4.5,4.5C254.6,42.6,252.6,44.6,250.1,44.6z
		"/>
	<path class="st0" d="M180,40.3c-0.1,2.6-2.2,4.5-4.7,4.3c-2.5-0.1-4.4-2.2-4.3-4.7c0.1-2.5,2.2-4.5,4.7-4.3
		C178.2,35.7,180.1,37.8,180,40.3z"/>
	<path class="st0" d="M157.9,147.1c0.1-2.7,1.1-5.1,3.5-6.7c1.1-0.8,2.3-1.1,3.6-1c1.9,0.1,3.3,1.2,3.9,3c1,3.1-0.5,7.2-3.2,9
		c-1.3,0.8-2.6,1.1-4.1,0.9c-2-0.3-3.5-1.9-3.6-4.1C158,147.9,158,147.5,157.9,147.1z M160.1,147.1c0.1,0.7,0.1,1.5,0.3,2.2
		c0.6,2.1,2.6,2.7,4.2,1.3c1.9-1.6,2.9-5.6,2.1-8.2c-0.6-1.9-2.2-2.5-3.9-1.4c-0.4,0.2-0.7,0.6-1,0.9
		C160.6,143.3,160.3,145.1,160.1,147.1z"/>
	<path class="st0" d="M226.3,144.4c0,2.6-1,4.9-3,6.6c-1.7,1.4-4.3,1.7-6.1,0.7c-1-0.6-1.6-1.4-1.9-2.4c-1-3.1,0.5-7.2,3.2-9
		c1.4-0.9,3-1.3,4.7-0.8c1.8,0.5,3,2.1,3.1,4.2C226.3,144,226.3,144.2,226.3,144.4z M217.1,147.2c0.2,0.9,0.3,1.8,0.6,2.6
		c0.5,1.3,1.9,1.8,3.2,1.2c1-0.5,1.7-1.3,2.2-2.3c1-2.1,1.3-4.2,0.6-6.5c-0.5-1.8-2-2.4-3.7-1.5c-0.5,0.2-0.9,0.6-1.2,1
		C217.7,143.3,217.3,145.2,217.1,147.2z"/>
	<path class="st0" d="M231.2,152.3c-2.7,0-4.4-1.4-4.7-3.7c-0.5-3.2,0.4-5.9,3-8c1.7-1.4,3.7-1.8,5.8-0.8c1.5,0.7,2.1,2,2.3,3.5
		c0.4,2.8-0.5,5.3-2.5,7.3C234,151.8,232.5,152.3,231.2,152.3z M235.5,144.6c-0.1-0.8-0.2-1.6-0.4-2.3c-0.6-2-2.5-2.5-4.2-1.3
		c-2.1,1.6-2.8,6-2.1,8.3c0.6,1.9,2.2,2.5,3.9,1.4c0.4-0.2,0.7-0.6,1-0.9C234.9,148.3,235.3,146.5,235.5,144.6z"/>
	<path class="st0" d="M67.5,144.7c-0.1,2.4-1,4.6-3,6.3c-1.7,1.4-4.3,1.7-6.1,0.7c-1.3-0.7-1.9-1.9-2.1-3.3
		c-0.6-2.9,0.9-6.6,3.4-8.2c0.8-0.5,1.9-0.9,2.8-1c2.7-0.3,4.7,1.5,4.9,4.4C67.5,144,67.5,144.2,67.5,144.7z M58.4,147.1
		c0.1,0.7,0.1,1.5,0.3,2.1c0.6,2,2.5,2.6,4.2,1.3c1-0.8,1.6-1.9,1.9-3c0.5-1.8,0.7-3.6,0.2-5.4c-0.5-1.7-2-2.3-3.5-1.5
		c-0.5,0.2-0.9,0.6-1.3,1C58.9,143.3,58.5,145.2,58.4,147.1z"/>
	<path class="st0" d="M86.6,146.3c0,0.8,0,1.5,0.2,2.3c0.4,1.9,1.9,2.8,3.8,2.1c0.8-0.3,1.6-0.9,2.4-1.3c0.2-0.1,0.4-0.3,0.7-0.5
		c0.2,0.7,0.1,1.2-0.5,1.7c-1.1,0.8-2.2,1.5-3.5,1.8c-2.8,0.5-4.8-1-5-3.8c-0.2-3.1,0.7-5.7,3.1-7.7c0.9-0.8,2-1.3,3.2-1.5
		c1.2-0.2,2.2,0.3,2.8,1.2c0.6,1,0.5,2.3-0.3,3.2c-1,1.2-2.4,1.8-3.9,2.1C88.5,146,87.6,146.1,86.6,146.3z M86.8,145.3
		c1.2-0.1,2.3-0.3,3.4-0.9c0.8-0.4,1.4-1,1.7-1.8c0.2-0.6,0.2-1.3-0.3-1.8c-0.5-0.5-1.2-0.5-1.8-0.2c-0.4,0.2-0.7,0.4-1,0.7
		C87.7,142.4,87.2,143.7,86.8,145.3z"/>
	<path class="st0" d="M156,134.3c-0.8-0.1-1.6-0.2-2.3-0.3c0-0.2,0-0.4,0-0.7c1.6-0.3,3.1-0.6,4.8-0.9c-0.4,1.8-0.7,3.5-1,5.2
		c-0.7,3.8-1.5,7.6-2.2,11.4c0,0.2-0.1,0.4-0.1,0.7c0,0.8,0.4,1.3,1.2,1.3c0.7,0,1.3-0.2,2-0.3c0.2,0.5,0,0.8-0.5,0.9
		c-1,0.2-1.9,0.6-2.9,0.6c-1.4,0.1-2.2-0.8-2-2.2c0.3-2,0.7-4,1.1-6C154.7,140.8,155.3,137.6,156,134.3z"/>
	<path class="st0" d="M290.1,140.9c-0.6,0.1-1.1,0.1-1.6,0.1c-0.1-0.4-0.2-0.8,0.3-0.9c1.4-0.3,2-1.3,2.5-2.5c0.4-1,0.5-1,1.6-0.8
		c-0.2,0.9-0.3,1.9-0.5,2.9c1.3,0,2.5,0,3.8,0c0,0.4,0,0.7,0,1.2c-1.3,0-2.6,0-4,0c-0.5,2.7-1,5.3-1.5,8c-0.2,1.4,0.5,2,1.9,1.9
		c0.7-0.1,1.4-0.3,2.1-0.4c0.2,0.6,0,0.9-0.5,1c-1.1,0.3-2.1,0.7-3.2,0.9c-1.5,0.3-2.5-0.5-2.5-1.9c0-1.3,0.3-2.6,0.5-3.9
		C289.3,144.6,289.7,142.8,290.1,140.9z"/>
	<path class="st0" d="M364.4,139.3c-0.6,3.3-1.3,6.6-1.9,9.9c-0.2,1.3,0.2,1.8,1.5,1.6c0.5-0.1,1-0.2,1.5-0.3c0.2,0.5,0.1,0.8-0.5,1
		c-1,0.2-1.9,0.6-2.9,0.7c-1.4,0.2-2.1-0.6-1.9-1.9c0.3-1.9,0.7-3.9,1-5.8c0.2-1.1,0.4-2.2,0.6-3.3c-0.7-0.1-1.3-0.2-1.8-0.4
		c-0.1,0-0.3-0.2-0.3-0.4c0-0.1,0.1-0.3,0.2-0.4c1.3-0.3,2.5-0.6,3.8-0.8C364,139.3,364.2,139.3,364.4,139.3z"/>
	<path class="st0" d="M310,134.8c0-0.8,0.6-1.4,1.4-1.4c0.8,0,1.4,0.7,1.4,1.4c0,0.7-0.7,1.4-1.4,1.4
		C310.6,136.2,310,135.6,310,134.8z"/>
	<path class="st0" d="M351.9,134.8c0-0.8,0.6-1.4,1.4-1.4c0.7,0,1.4,0.7,1.4,1.4c0,0.8-0.7,1.4-1.4,1.4
		C352.5,136.2,351.9,135.6,351.9,134.8z"/>
	<path class="st0" d="M365.7,134.8c0,0.8-0.7,1.4-1.5,1.4c-0.8,0-1.4-0.7-1.4-1.4c0-0.8,0.7-1.4,1.5-1.4
		C365,133.4,365.7,134.1,365.7,134.8z"/>
	<path class="st0" d="M108.5,134.8c0,0.8-0.7,1.4-1.5,1.4c-0.8,0-1.4-0.7-1.4-1.4c0-0.8,0.7-1.4,1.5-1.4
		C107.9,133.4,108.5,134.1,108.5,134.8z"/>
</g>
</svg>
